<?xml version="1.0" standalone="no"?>
<!DOCTYPE svg PUBLIC "-//W3C//DTD SVG 20010904//EN"
 "http://www.w3.org/TR/2001/REC-SVG-20010904/DTD/svg10.dtd">
<svg version="1.0" xmlns="http://www.w3.org/2000/svg"
 width="251.000000pt" height="145.000000pt" viewBox="0 0 251.000000 145.000000"
 preserveAspectRatio="xMidYMid meet">

<g transform="translate(0.000000,145.000000) scale(0.100000,-0.100000)"
fill="#000000" stroke="none">
<path d="M1288 1331 l-40 -41 -35 30 c-42 37 -82 39 -120 6 -26 -22 -28 -30
-26 -87 1 -46 9 -77 32 -123 34 -70 109 -156 135 -156 29 0 121 105 161 184
46 90 51 149 19 193 -34 45 -76 43 -126 -6z m110 -56 c4 -49 -50 -161 -112
-230 l-44 -50 -42 40 c-54 51 -90 124 -97 191 -6 58 3 78 38 87 15 4 33 -6 64
-34 23 -21 47 -39 53 -39 6 0 18 13 27 29 8 16 27 39 41 50 24 19 30 20 48 8
14 -10 22 -27 24 -52z"/>
<path d="M380 1072 c-46 -25 -80 -87 -88 -164 -7 -62 -8 -63 -40 -68 -45 -7
-45 -24 1 -28 l37 -3 0 -157 c0 -86 -4 -162 -8 -168 -4 -7 -18 -14 -32 -15
-14 -2 -25 -11 -25 -19 0 -12 19 -15 115 -15 96 0 115 3 115 15 0 9 -12 16
-30 18 -53 6 -55 11 -55 183 l0 159 55 0 c41 0 55 4 55 14 0 11 -15 16 -52 18
l-53 3 -3 60 c-5 115 45 189 104 151 25 -17 32 -54 13 -73 -18 -18 -3 -43 25
-43 29 0 56 33 56 68 0 13 -13 37 -29 53 -24 24 -38 29 -78 29 -28 0 -63 -8
-83 -18z"/>
<path d="M1635 1076 c-58 -14 -75 -42 -28 -48 l28 -3 0 -275 0 -274 -25 -6
c-14 -3 -26 -13 -28 -22 -3 -13 11 -15 100 -14 84 1 103 4 103 16 0 8 -9 16
-20 18 -43 8 -45 21 -45 329 0 331 9 301 -85 279z"/>
<path d="M1098 842 c-55 -15 -80 -42 -39 -42 37 0 42 -22 39 -176 l-3 -148
-25 -6 c-14 -3 -26 -13 -28 -22 -3 -13 11 -15 100 -14 84 1 103 4 103 16 0 8
-10 16 -23 18 -33 5 -42 38 -42 163 0 108 1 111 28 139 60 60 151 45 171 -28
13 -46 14 -212 2 -246 -6 -14 -19 -26 -33 -28 -13 -2 -23 -10 -23 -18 0 -12
18 -15 100 -15 81 0 100 3 100 15 0 8 -11 17 -25 20 -25 6 -25 6 -30 151 -6
156 -14 181 -65 215 -48 31 -157 14 -194 -30 -21 -25 -31 -19 -31 19 0 39 0
39 -82 17z"/>
<path d="M515 840 c-9 -15 3 -30 24 -30 35 0 50 -30 173 -346 15 -38 15 -43
-1 -80 -27 -59 -69 -96 -105 -92 -29 3 -31 6 -32 43 0 36 -3 40 -28 43 -62 8
-79 -67 -25 -112 65 -55 145 -23 206 82 15 24 61 128 102 231 42 102 81 194
87 204 6 11 26 22 45 26 20 4 34 13 34 21 0 12 -18 15 -90 15 -72 0 -90 -3
-90 -15 0 -9 11 -16 28 -18 33 -4 34 -12 1 -98 -14 -38 -35 -93 -46 -123 l-21
-54 -14 26 c-7 15 -29 67 -48 117 -43 111 -61 139 -102 156 -38 16 -89 18 -98
4z"/>
<path d="M1837 843 c-14 -13 -6 -24 23 -35 20 -6 38 -24 50 -48 27 -54 130
-319 130 -336 0 -49 -71 -134 -112 -134 -34 0 -59 40 -40 63 15 18 5 27 -28
27 -35 0 -50 -17 -50 -57 0 -88 123 -113 189 -37 41 46 76 117 156 315 81 200
86 207 127 211 21 2 33 8 33 18 0 12 -16 15 -90 14 -71 0 -90 -4 -90 -15 0 -8
12 -15 28 -17 15 -2 27 -7 27 -12 0 -24 -94 -260 -101 -253 -4 4 -24 51 -44
103 -50 129 -72 167 -111 185 -33 15 -86 20 -97 8z"/>
</g>
</svg>
