<svg xmlns="http://www.w3.org/2000/svg" xmlns:xlink="http://www.w3.org/1999/xlink" width="230" zoomAndPan="magnify" viewBox="0 0 172.5 89.999999" height="120" preserveAspectRatio="xMidYMid meet" version="1.2"><defs><clipPath id="35e6cef7c8"><path d="M 4.617188 23 L 33 23 L 33 75 L 4.617188 75 Z M 4.617188 23 "/></clipPath><clipPath id="eb708a9a04"><path d="M 26 42 L 66 42 L 66 89.867188 L 26 89.867188 Z M 26 42 "/></clipPath><clipPath id="da552d579a"><path d="M 128 42 L 167.644531 42 L 167.644531 89.867188 L 128 89.867188 Z M 128 42 "/></clipPath></defs><g id="2627e097cc"><path style=" stroke:none;fill-rule:nonzero;fill:#000000;fill-opacity:1;" d="M 87.785156 4.105469 L 84.828125 7.136719 L 82.339844 4.882812 C 80.628906 3.328125 78.996094 2.625 77.285156 2.625 C 70.285156 2.703125 68.652344 10.636719 73.628906 21.058594 C 75.960938 26.191406 81.949219 32.957031 83.972656 32.957031 C 86.226562 32.957031 92.996094 25.027344 96.183594 18.648438 C 100.070312 11.105469 100.382812 6.050781 97.351562 3.015625 C 94.472656 0.0585938 91.359375 0.449219 87.785156 4.105469 Z M 96.648438 7.058594 C 96.960938 8.148438 96.648438 10.792969 95.949219 13.046875 C 94.472656 17.558594 88.171875 27.125 85.449219 28.914062 C 83.816406 30.003906 83.507812 29.925781 80.785156 26.96875 C 77.363281 23.390625 74.640625 18.027344 73.707031 13.125 C 72.929688 9.082031 73.941406 6.59375 76.660156 5.582031 C 78.21875 5.039062 78.917969 5.425781 81.484375 8.070312 C 83.117188 9.78125 84.90625 11.183594 85.449219 11.183594 C 86.074219 11.183594 87.160156 9.9375 88.015625 8.382812 C 90.738281 3.25 95.5625 2.472656 96.648438 7.058594 Z M 96.648438 7.058594 "/><g clip-rule="nonzero" clip-path="url(#35e6cef7c8)"><path style=" stroke:none;fill-rule:nonzero;fill:#000000;fill-opacity:1;" d="M 18.796875 23.9375 C 13.898438 26.191406 10.632812 32.179688 10.632812 38.871094 C 10.632812 42.136719 10.632812 42.214844 7.753906 42.449219 C 3.941406 42.757812 3.941406 44.160156 7.753906 44.46875 L 10.632812 44.703125 L 10.476562 57.691406 L 10.242188 70.679688 L 7.675781 71.457031 C 3.007812 72.78125 5.5 73.789062 14.363281 74.023438 C 21.753906 74.179688 23.074219 74.023438 23.074219 73.011719 C 23.074219 72.390625 22.375 71.847656 21.441406 71.847656 C 20.585938 71.847656 19.1875 71.457031 18.332031 71.070312 C 16.929688 70.289062 16.851562 69.28125 16.851562 57.457031 L 16.851562 44.625 L 21.128906 44.625 C 24.398438 44.625 25.410156 44.390625 25.410156 43.457031 C 25.410156 42.523438 24.398438 42.292969 21.128906 42.292969 L 16.851562 42.292969 L 16.851562 36.925781 C 16.851562 31.09375 17.554688 28.527344 19.574219 26.503906 C 21.054688 24.949219 24.707031 24.792969 26.03125 26.113281 C 27.351562 27.4375 27.195312 31.015625 25.796875 32.179688 C 24.242188 33.503906 25.097656 34.515625 27.742188 34.515625 C 30.773438 34.515625 32.953125 31.402344 31.941406 28.527344 C 30.386719 24.09375 23.542969 21.757812 18.796875 23.9375 Z M 18.796875 23.9375 "/></g><path style=" stroke:none;fill-rule:nonzero;fill:#000000;fill-opacity:1;" d="M 115.472656 24.25 C 111.195312 25.414062 109.25 27.515625 112.359375 27.515625 C 115.472656 27.515625 115.625 28.601562 115.625 49.914062 L 115.625 70.445312 L 113.292969 71.300781 C 112.050781 71.769531 110.960938 72.625 110.960938 73.167969 C 110.960938 73.945312 112.984375 74.179688 119.125 74.179688 C 125.894531 74.179688 127.292969 73.945312 127.292969 73.011719 C 127.292969 72.390625 126.59375 71.847656 125.816406 71.847656 C 124.960938 71.847656 123.714844 71.300781 123.09375 70.601562 C 122.003906 69.589844 121.847656 66.246094 121.847656 46.101562 C 121.847656 27.980469 121.617188 22.847656 120.914062 22.925781 C 120.371094 23.003906 117.882812 23.625 115.472656 24.25 Z M 115.472656 24.25 "/><path style=" stroke:none;fill-rule:nonzero;fill:#000000;fill-opacity:1;" d="M 76.351562 41.902344 C 75.960938 42.058594 74.09375 42.601562 72.230469 43.070312 C 68.652344 44.003906 68.183594 45.480469 71.375 46.179688 C 73.238281 46.648438 73.238281 46.648438 73.472656 58.546875 L 73.707031 70.445312 L 71.296875 71.300781 C 70.050781 71.769531 68.960938 72.625 68.960938 73.167969 C 68.960938 73.945312 70.984375 74.179688 77.128906 74.179688 C 83.894531 74.179688 85.292969 73.945312 85.292969 73.011719 C 85.292969 72.390625 84.59375 71.847656 83.816406 71.847656 C 80.472656 71.847656 79.851562 69.980469 79.851562 59.792969 L 79.851562 50.226562 L 82.574219 47.8125 C 86.148438 44.703125 90.429688 44.546875 93.617188 47.269531 C 95.792969 49.136719 95.792969 49.292969 96.027344 59.167969 C 96.261719 67.800781 96.105469 69.433594 95.015625 70.523438 C 94.316406 71.222656 93.070312 71.847656 92.214844 71.847656 C 91.4375 71.847656 90.738281 72.390625 90.738281 73.011719 C 90.738281 73.945312 92.140625 74.179688 98.90625 74.179688 C 105.050781 74.179688 107.070312 73.945312 107.070312 73.167969 C 107.070312 72.625 106.0625 71.847656 104.894531 71.378906 C 102.09375 70.289062 101.628906 68.269531 101.628906 56.914062 C 101.628906 46.878906 100.695312 44.546875 95.871094 42.601562 C 91.59375 40.96875 87.003906 41.746094 83.195312 44.703125 L 80.238281 47.113281 L 80.007812 44.3125 C 79.773438 41.59375 78.839844 40.96875 76.351562 41.902344 Z M 76.351562 41.902344 "/><g clip-rule="nonzero" clip-path="url(#eb708a9a04)"><path style=" stroke:none;fill-rule:nonzero;fill:#000000;fill-opacity:1;" d="M 28.128906 43.070312 C 27.507812 44.082031 27.429688 44.003906 30.230469 45.246094 C 33.1875 46.492188 34.273438 48.359375 39.875 62.667969 L 44.851562 75.269531 L 43.21875 78.613281 C 41.429688 82.269531 37.695312 85.84375 35.675781 85.84375 C 32.71875 85.84375 31.398438 83.355469 32.71875 80.324219 C 33.417969 78.613281 30.851562 77.914062 28.363281 79.15625 C 26.109375 80.246094 25.640625 83.667969 27.273438 86.234375 C 27.976562 87.246094 29.917969 88.566406 31.550781 89.035156 C 39.253906 91.289062 43.21875 86.15625 53.097656 61.347656 C 58.617188 47.582031 60.484375 44.625 63.90625 44.625 C 65.230469 44.625 65.851562 44.234375 65.695312 43.613281 C 65.460938 42.992188 63.285156 42.679688 58.460938 42.679688 C 53.640625 42.679688 51.460938 42.992188 51.308594 43.613281 C 51.074219 44.234375 51.695312 44.625 52.941406 44.625 C 54.105469 44.625 55.195312 45.167969 55.429688 45.792969 C 55.816406 46.800781 50.605469 62.203125 48.820312 65.46875 C 48.351562 66.246094 47.417969 64.691406 45.707031 60.492188 C 41.117188 49.292969 38.785156 44.9375 36.6875 44.003906 C 33.496094 42.523438 28.753906 41.980469 28.128906 43.070312 Z M 28.128906 43.070312 "/></g><g clip-rule="nonzero" clip-path="url(#da552d579a)"><path style=" stroke:none;fill-rule:nonzero;fill:#000000;fill-opacity:1;" d="M 130.402344 43.457031 C 130.402344 44.082031 130.871094 44.625 131.492188 44.625 C 134.371094 44.625 136.703125 48.4375 141.679688 60.957031 C 144.480469 67.957031 146.738281 74.492188 146.738281 75.347656 C 146.738281 77.445312 142.613281 83.902344 140.59375 84.988281 C 136.859375 87.011719 133.75 84.835938 134.757812 80.945312 C 135.304688 78.613281 133.75 77.835938 131.105469 79.15625 C 126.75 81.335938 129.160156 88.335938 134.683594 89.421875 C 141.835938 90.746094 145.882812 85.457031 154.824219 63.214844 C 158.167969 54.890625 161.4375 47.503906 162.136719 46.726562 C 162.757812 46.023438 164.3125 45.089844 165.558594 44.78125 C 169.914062 43.691406 167.734375 42.679688 160.96875 42.679688 C 156.304688 42.679688 154.125 42.992188 153.96875 43.613281 C 153.738281 44.234375 154.359375 44.625 155.601562 44.625 C 156.613281 44.625 157.78125 45.015625 158.09375 45.480469 C 158.714844 46.570312 151.324219 66.636719 150.546875 65.859375 C 150.238281 65.546875 148.527344 61.578125 146.738281 57.070312 C 142.847656 47.191406 140.671875 44.160156 136.78125 43.070312 C 132.660156 41.980469 130.402344 42.058594 130.402344 43.457031 Z M 130.402344 43.457031 "/></g></g></svg>