<svg version="1.1" id="Layer_1" xmlns="http://www.w3.org/2000/svg" xmlns:xlink="http://www.w3.org/1999/xlink" x="0px" y="0px"
	 width="100%" viewBox="0 0 2077 329" enable-background="new 0 0 2077 329" xml:space="preserve">
<path fill="#FFFFFF" opacity="1.000000" stroke="none" 
	d="
M2078.000000,57.000000 
	C2078.000000,147.936234 2078.000000,238.872482 2078.000000,330.000000 
	C1965.642700,330.000000 1853.285156,330.000000 1740.466553,329.610626 
	C1755.417358,288.976044 1770.829346,248.730804 1786.427246,208.000275 
	C1779.003540,208.000275 1772.350708,207.849503 1765.716309,208.132553 
	C1764.449585,208.186600 1762.570435,209.712372 1762.132446,210.964447 
	C1756.634644,226.681839 1751.390259,242.487686 1745.982910,258.237213 
	C1744.609863,262.236115 1742.891479,266.116486 1740.870361,271.215424 
	C1734.264893,250.379715 1728.182007,231.039307 1721.923462,211.755875 
	C1721.449951,210.296860 1719.774536,208.221573 1718.579468,208.167572 
	C1711.217041,207.834854 1703.832153,208.000641 1696.035645,208.000641 
	C1700.489868,219.916016 1704.782471,231.297272 1709.000488,242.706131 
	C1715.383179,259.970276 1721.786865,277.227631 1727.970093,294.563324 
	C1728.700562,296.611450 1728.742188,299.364410 1728.010010,301.396881 
	C1724.548340,311.006287 1720.706421,320.478729 1717.000000,330.000000 
	C1145.123291,330.000000 573.246521,330.000000 1.000000,330.000000 
	C1.000000,239.309586 1.000000,148.618683 1.468657,57.463882 
	C221.891800,57.000000 441.846283,57.000000 662.000000,57.000000 
	C662.000000,37.937950 662.000000,19.468975 662.000000,1.000000 
	C677.357422,1.000000 692.714844,1.000000 708.536133,1.468657 
	C709.000000,20.203474 709.000000,38.469631 709.000000,56.710297 
	C929.293518,56.710297 1149.016235,56.710297 1369.000000,56.710297 
	C1369.000000,37.947845 1369.000000,19.473923 1369.000000,1.000000 
	C1385.024048,1.000000 1401.048218,1.000000 1417.536133,1.468657 
	C1418.000000,20.197359 1418.000000,38.457401 1418.000000,57.000000 
	C1638.436279,57.000000 1858.218140,57.000000 2078.000000,57.000000 
M317.999908,202.509048 
	C318.329102,203.413589 318.684540,204.309555 318.983673,205.223938 
	C328.650757,234.775711 338.278778,264.340424 348.085114,293.845917 
	C348.525482,295.170837 350.530365,296.783722 351.883636,296.858032 
	C357.863037,297.186249 363.876404,296.844025 369.865753,297.063721 
	C373.006744,297.178894 374.129791,296.165588 375.148987,293.032104 
	C385.262146,261.940216 395.655731,230.939468 406.015015,199.927979 
	C406.392639,198.797485 407.233429,197.821686 407.858368,196.773788 
	C408.269196,196.925262 408.679993,197.076721 409.090820,197.228195 
	C409.090820,230.421356 409.090820,263.614532 409.090820,296.701599 
	C417.336853,296.701599 425.075104,296.701599 432.716614,296.701599 
	C432.716614,254.010086 432.716614,211.617584 432.716614,169.113373 
	C419.140442,169.113373 405.847504,169.113373 392.356964,169.113373 
	C382.195221,201.712814 372.040131,234.291000 361.885040,266.869202 
	C361.556976,266.846100 361.228912,266.823029 360.900879,266.799927 
	C350.800110,234.265945 340.699371,201.731964 330.619843,169.266327 
	C317.089111,169.266327 303.672943,169.266327 290.251282,169.266327 
	C290.251282,211.925446 290.251282,254.317734 290.251282,296.747864 
	C298.241425,296.747864 305.977661,296.747864 314.271912,296.747864 
	C314.271912,263.037720 314.271912,229.576462 314.271912,196.115219 
	C314.647919,196.024399 315.023895,195.933563 315.399902,195.842743 
	C316.254425,197.792267 317.108948,199.741791 317.999908,202.509048 
M1039.000000,216.510254 
	C1039.333374,234.415100 1039.211182,252.344666 1040.181030,270.214966 
	C1040.712769,280.016052 1045.676758,287.824890 1054.948853,292.566010 
	C1064.011353,297.199860 1073.807739,298.325500 1083.603760,298.842621 
	C1091.811890,299.275909 1100.127808,298.700043 1108.331665,297.905304 
	C1117.849731,296.983215 1127.278687,295.168213 1136.785278,294.083435 
	C1140.562378,293.652435 1141.089844,291.781128 1141.055054,288.559357 
	C1140.919922,276.065796 1141.000000,263.569946 1141.000000,251.074936 
	C1141.000000,243.805542 1141.000000,236.536148 1141.000000,229.256134 
	C1123.412231,229.256134 1106.344604,229.256134 1089.258301,229.256134 
	C1089.258301,234.254654 1089.258301,238.992783 1089.258301,244.120514 
	C1098.252197,244.120514 1106.993530,244.120514 1115.999634,244.120514 
	C1115.999634,255.482208 1116.111938,266.451202 1115.842407,277.410797 
	C1115.812378,278.633545 1113.786377,280.555267 1112.391968,280.876434 
	C1102.389771,283.180054 1092.294678,284.946320 1081.980103,282.994385 
	C1074.276245,281.536591 1067.575073,278.712799 1066.000000,269.894562 
	C1065.117798,264.955475 1064.082520,259.939606 1064.102539,254.962296 
	C1064.174805,237.051422 1064.645874,219.141800 1065.010132,201.232620 
	C1065.154785,194.121841 1070.284058,186.692093 1077.484863,185.184662 
	C1084.606567,183.693832 1092.101196,182.758926 1099.310791,183.275085 
	C1105.916748,183.748032 1112.234131,186.900482 1114.519531,194.125458 
	C1115.674805,197.777145 1115.830811,201.744888 1116.450562,205.644897 
	C1124.538818,205.644897 1132.741089,205.644897 1141.000000,205.644897 
	C1141.000000,202.624893 1141.302856,199.918381 1140.944336,197.302536 
	C1139.781006,188.816040 1137.220947,181.178101 1129.532715,175.921936 
	C1119.097168,168.787552 1107.079712,167.720474 1095.276489,167.280640 
	C1085.428223,166.913651 1075.249878,167.990997 1065.648315,170.255356 
	C1053.023926,173.232666 1042.619141,180.109940 1040.389526,194.338745 
	C1039.298828,201.299225 1039.424805,208.450363 1039.000000,216.510254 
M1445.457520,206.000000 
	C1433.914307,205.280563 1423.885864,209.226166 1414.882202,216.384689 
	C1407.713989,208.007782 1398.506470,206.134247 1388.364868,205.887360 
	C1378.410156,205.645035 1369.479004,208.255371 1360.892700,214.184143 
	C1360.892700,211.610275 1360.892700,209.978394 1360.892700,208.359192 
	C1352.833984,208.359192 1344.949219,208.359192 1337.360352,208.359192 
	C1337.360352,238.123474 1337.360352,267.528015 1337.360352,296.636017 
	C1345.466553,296.636017 1353.210327,296.636017 1361.000000,296.636017 
	C1361.000000,276.941803 1360.871094,257.610260 1361.058105,238.281799 
	C1361.142944,229.514725 1362.980103,221.761292 1375.453857,219.141464 
	C1385.069336,217.121933 1393.998047,223.688812 1393.999634,233.355011 
	C1394.001465,245.187149 1394.000000,257.019287 1394.000000,268.851410 
	C1394.000000,278.129028 1394.000000,287.406677 1394.000000,296.760986 
	C1402.210815,296.760986 1409.948975,296.760986 1418.000000,296.760986 
	C1418.000000,277.560730 1417.905396,258.596802 1418.082397,239.635422 
	C1418.116455,235.982758 1418.855225,232.233475 1419.895874,228.714188 
	C1422.291626,220.612976 1429.385498,219.562393 1436.223511,219.102386 
	C1444.695435,218.532440 1449.469238,222.164917 1450.981567,230.559601 
	C1451.993164,236.174454 1451.918701,242.021744 1451.959473,247.767654 
	C1452.074951,264.050964 1452.000000,280.335602 1452.000000,296.791412 
	C1459.815063,296.791412 1467.219727,296.791412 1474.999268,296.791412 
	C1474.999268,272.797241 1475.257568,249.004776 1474.804443,225.225861 
	C1474.700439,219.764648 1472.382202,214.365051 1466.790527,211.197220 
	C1460.410767,207.582840 1453.638550,206.034531 1445.457520,206.000000 
M601.181091,298.999939 
	C608.395264,296.648682 615.609497,294.297455 622.881409,291.927399 
	C622.948120,293.083710 623.056152,294.958008 623.156799,296.703125 
	C631.329041,296.703125 639.069458,296.703125 646.732056,296.703125 
	C646.732056,254.022583 646.732056,211.639450 646.732056,169.266159 
	C638.726196,169.266159 630.990662,169.266159 622.931641,169.266159 
	C622.931641,183.606750 622.931641,197.685242 622.931641,212.700958 
	C613.255920,206.174896 602.973022,205.647903 592.463196,205.967987 
	C578.238464,206.401230 566.276611,217.974854 566.048157,232.202194 
	C565.826294,246.021713 565.592529,259.863770 566.140442,273.665100 
	C566.517883,283.172455 570.507385,291.055054 579.832458,295.439850 
	C586.382080,298.519562 593.200623,299.240936 601.181091,298.999939 
M483.331604,234.000000 
	C484.803436,234.000000 486.275269,234.000000 487.711884,234.000000 
	C488.606659,223.675522 495.093597,217.623886 504.813416,219.149078 
	C516.741943,221.020859 519.408447,223.184540 517.622803,241.146896 
	C507.092041,242.104080 496.592377,242.607941 486.246643,244.146805 
	C478.508453,245.297806 470.800934,247.475296 465.875641,254.558487 
	C460.597260,262.149475 460.138519,270.862976 461.358490,279.426819 
	C462.468567,287.219238 466.573486,293.398193 474.711792,296.337799 
	C482.318787,299.085480 490.146881,299.759277 497.902618,298.767609 
	C502.980896,298.118256 507.865265,295.607452 512.703552,293.608643 
	C514.455566,292.884888 515.821045,291.225677 518.045227,289.447937 
	C518.045227,292.610443 518.045227,294.582977 518.045227,296.678406 
	C526.095520,296.678406 533.975159,296.678406 542.000000,296.678406 
	C542.000000,273.871094 542.123779,251.384094 541.941650,228.899582 
	C541.864197,219.337936 535.952820,211.991486 526.443298,209.027145 
	C511.860718,204.481445 496.979858,204.640625 482.443146,208.429169 
	C470.656219,211.501083 462.195984,220.059036 464.514374,234.000000 
	C470.425720,234.000000 476.395508,234.000000 483.331604,234.000000 
M1519.879639,244.026260 
	C1517.480225,244.930161 1515.130493,246.008926 1512.672363,246.705536 
	C1505.011230,248.876556 1499.661377,253.607529 1498.150513,261.412720 
	C1497.069336,266.997955 1497.256348,272.840698 1497.022217,278.574493 
	C1496.789551,284.269287 1499.528687,288.464172 1503.598389,292.299072 
	C1512.946167,301.107605 1540.377075,301.846802 1550.914917,291.604004 
	C1551.642700,290.896698 1552.628418,290.454865 1554.047363,289.528442 
	C1554.047363,292.404419 1554.047363,294.513855 1554.047363,296.633911 
	C1562.207397,296.633911 1570.077881,296.633911 1577.000000,296.633911 
	C1577.000000,273.189514 1577.058472,250.114044 1576.964355,227.039230 
	C1576.936157,220.151505 1571.151367,212.497269 1564.387329,210.012650 
	C1549.175659,204.425064 1533.582275,204.397202 1518.216553,208.505798 
	C1503.930786,212.325638 1498.779785,220.391586 1499.354004,233.810547 
	C1507.120972,233.810547 1514.896729,233.810547 1522.652832,233.810547 
	C1524.812012,220.638977 1530.637939,218.640213 1541.339233,219.274765 
	C1551.686035,219.888275 1555.475342,225.403732 1553.636230,241.152023 
	C1542.603882,242.107819 1531.673462,243.054779 1519.879639,244.026260 
M1171.463257,218.019699 
	C1169.642212,224.272644 1166.550415,230.468750 1166.267578,236.790512 
	C1165.699707,249.483398 1166.381836,262.260559 1167.083740,274.973358 
	C1167.692505,285.999054 1173.630737,293.068573 1184.453369,296.086365 
	C1199.259277,300.214783 1213.901733,299.899567 1228.786865,296.146118 
	C1242.912231,292.584198 1249.051514,283.098419 1246.557251,270.189606 
	C1238.845215,270.189606 1231.096436,270.189606 1222.942261,270.189606 
	C1223.664917,277.223022 1221.579346,282.904877 1214.184448,284.121857 
	C1209.162109,284.948395 1203.835693,284.678955 1198.740356,284.084747 
	C1194.296753,283.566498 1191.114990,281.028229 1190.905029,275.817841 
	C1190.683594,270.321869 1190.059204,264.842102 1189.575806,258.927856 
	C1209.208008,258.927856 1227.937988,258.927856 1247.000000,258.927856 
	C1247.000000,249.760864 1246.716431,240.961441 1247.068115,232.187469 
	C1247.563110,219.842117 1239.670532,211.895844 1230.181641,209.018387 
	C1215.614624,204.601059 1200.788086,204.406906 1186.275635,208.580490 
	C1181.083496,210.073654 1176.707275,214.404266 1171.463257,218.019699 
M710.433655,299.000000 
	C716.580750,298.326935 722.866272,298.251129 728.848206,296.865265 
	C744.758911,293.179291 750.912903,282.489471 748.386719,270.263428 
	C740.604431,270.263428 732.842285,270.263428 726.847046,270.263428 
	C724.437134,274.756714 723.163940,278.902618 720.490479,281.719696 
	C715.937195,286.517639 700.758789,286.410706 695.691223,282.062286 
	C694.434570,280.983917 693.195740,279.229248 693.018555,277.664276 
	C692.326233,271.551392 692.062866,265.389893 691.611694,258.834320 
	C711.304138,258.834320 730.031860,258.834320 749.000000,258.834320 
	C749.000000,249.991013 749.506836,241.488098 748.884827,233.068573 
	C747.875305,219.402756 744.961365,213.794846 731.304077,209.070831 
	C718.314331,204.577728 704.725525,204.587982 691.563416,207.388504 
	C673.101135,211.316711 669.338196,219.699982 668.220337,233.645691 
	C667.186035,246.548996 667.408325,259.635773 668.180603,272.575928 
	C668.840942,283.642059 672.619995,292.291199 685.379883,295.785583 
	C693.119873,297.905212 701.415039,297.997131 710.433655,299.000000 
M909.692444,207.996872 
	C905.927673,209.677307 902.162964,211.357742 898.246460,213.105911 
	C898.044617,211.205872 897.879700,209.653259 897.739807,208.336060 
	C889.582520,208.336060 881.844727,208.336060 874.322998,208.336060 
	C874.322998,238.067337 874.322998,267.461823 874.322998,296.677246 
	C882.387512,296.677246 890.126038,296.677246 898.000000,296.677246 
	C898.000000,277.211273 898.042969,258.067566 897.984192,238.924179 
	C897.947876,227.113266 901.758606,221.345901 913.873779,219.004242 
	C922.496277,217.337677 930.996094,224.124908 930.998535,232.894241 
	C931.003479,250.551041 931.000000,268.207825 931.000000,285.864624 
	C931.000000,289.477539 931.000000,293.090424 931.000000,296.761292 
	C939.215454,296.761292 946.950989,296.761292 954.999207,296.761292 
	C954.999207,272.406067 955.207520,248.284973 954.837769,224.172729 
	C954.755737,218.819977 952.007874,213.822327 946.861023,211.005875 
	C935.223938,204.637863 923.010376,204.572983 909.692444,207.996872 
M1625.000000,259.500000 
	C1625.000000,251.667877 1624.930054,243.834930 1625.024658,236.003937 
	C1625.087646,230.788834 1626.223389,225.737503 1630.906006,222.774521 
	C1633.492065,221.138046 1636.744019,220.406479 1639.794189,219.678635 
	C1648.646973,217.566025 1658.301758,222.738037 1658.101807,233.655106 
	C1657.741821,253.311905 1657.995117,272.980042 1658.010010,292.643433 
	C1658.011108,294.067047 1658.156738,295.490509 1658.220947,296.657532 
	C1666.423584,296.657532 1674.165527,296.657532 1682.000000,296.657532 
	C1682.000000,272.659515 1682.006958,249.003784 1681.978760,225.348099 
	C1681.977417,224.227707 1681.779297,223.076645 1681.481934,221.992203 
	C1678.258789,210.240356 1670.170410,207.667847 1657.562134,206.148361 
	C1646.084961,204.765167 1634.897949,206.558350 1624.769165,214.284546 
	C1624.769165,211.699646 1624.769165,209.951309 1624.769165,208.284439 
	C1616.713623,208.284439 1608.964844,208.284439 1601.283691,208.284439 
	C1601.283691,237.971832 1601.283691,267.373901 1601.283691,296.713318 
	C1609.309570,296.713318 1617.048950,296.713318 1625.000000,296.713318 
	C1625.000000,284.451813 1625.000000,272.475891 1625.000000,259.500000 
M1322.000000,213.527008 
	C1322.000000,211.083344 1322.000000,208.639694 1322.000000,206.024719 
	C1310.878296,205.697052 1301.716797,209.383194 1292.967041,216.879395 
	C1292.967041,213.280502 1292.967041,210.746338 1292.967041,208.272888 
	C1285.047363,208.272888 1277.644043,208.272888 1270.242188,208.272888 
	C1270.242188,237.928360 1270.242188,267.310303 1270.242188,296.762238 
	C1277.886108,296.762238 1285.285645,296.762238 1292.999756,296.762238 
	C1292.999756,295.729523 1292.986694,294.932098 1293.001709,294.135193 
	C1293.332520,276.574188 1293.426270,259.003967 1294.100830,241.456131 
	C1294.440308,232.626038 1298.715820,226.767990 1307.602783,225.014069 
	C1312.312622,224.084549 1317.059448,223.342346 1322.000000,222.478760 
	C1322.000000,219.788116 1322.000000,217.142242 1322.000000,213.527008 
M827.000000,277.499573 
	C827.000000,283.930939 827.000000,290.362305 827.000000,296.710144 
	C835.316772,296.710144 843.055908,296.710144 850.712708,296.710144 
	C850.712708,267.018463 850.712708,237.617523 850.712708,208.289856 
	C842.683228,208.289856 834.944092,208.289856 827.261658,208.289856 
	C827.141052,208.890167 827.023621,209.202606 827.023438,209.515106 
	C827.009644,231.843338 827.005188,254.171585 827.000000,277.499573 
M826.000000,182.356186 
	C826.177002,183.968033 825.142029,186.116653 828.368103,186.048477 
	C835.808289,185.891281 843.254028,185.998581 850.756714,185.998581 
	C850.756714,180.111435 850.756714,174.706741 850.756714,169.245850 
	C842.440186,169.245850 834.369202,169.245850 826.000000,169.245850 
	C826.000000,173.454819 826.000000,177.421585 826.000000,182.356186 
z"/>
<path fill="#000000" opacity="1.000000" stroke="none" 
	d="
M661.531372,1.000000 
	C662.000000,19.468975 662.000000,37.937950 662.000000,57.000000 
	C441.846283,57.000000 221.891800,57.000000 1.468657,57.000000 
	C1.000000,38.344727 1.000000,19.689453 1.000000,1.000000 
	C221.020889,1.000000 441.041779,1.000000 661.531372,1.000000 
z"/>
<path fill="#FF0000" opacity="1.000000" stroke="none" 
	d="
M1368.531372,1.000000 
	C1369.000000,19.473923 1369.000000,37.947845 1369.000000,56.710297 
	C1149.016235,56.710297 929.293518,56.710297 709.000000,56.710297 
	C709.000000,38.469631 709.000000,20.203474 709.000000,1.468657 
	C928.687561,1.000000 1148.375122,1.000000 1368.531372,1.000000 
z"/>
<path fill="#FFCC00" opacity="1.000000" stroke="none" 
	d="
M2078.000000,56.531342 
	C1858.218140,57.000000 1638.436279,57.000000 1418.000000,57.000000 
	C1418.000000,38.457401 1418.000000,20.197359 1418.000000,1.468657 
	C1638.000000,1.000000 1858.000000,1.000000 2078.000000,1.000000 
	C2078.000000,19.418436 2078.000000,37.740559 2078.000000,56.531342 
z"/>
<path fill="#000000" opacity="1.000000" stroke="none" 
	d="
M1717.468628,330.000000 
	C1720.706421,320.478729 1724.548340,311.006287 1728.010010,301.396881 
	C1728.742188,299.364410 1728.700562,296.611450 1727.970093,294.563324 
	C1721.786865,277.227631 1715.383179,259.970276 1709.000488,242.706131 
	C1704.782471,231.297272 1700.489868,219.916016 1696.035645,208.000641 
	C1703.832153,208.000641 1711.217041,207.834854 1718.579468,208.167572 
	C1719.774536,208.221573 1721.449951,210.296860 1721.923462,211.755875 
	C1728.182007,231.039307 1734.264893,250.379715 1740.870361,271.215424 
	C1742.891479,266.116486 1744.609863,262.236115 1745.982910,258.237213 
	C1751.390259,242.487686 1756.634644,226.681839 1762.132446,210.964447 
	C1762.570435,209.712372 1764.449585,208.186600 1765.716309,208.132553 
	C1772.350708,207.849503 1779.003540,208.000275 1786.427246,208.000275 
	C1770.829346,248.730804 1755.417358,288.976044 1740.002686,329.610626 
	C1732.645752,330.000000 1725.291504,330.000000 1717.468628,330.000000 
z"/>
<path fill="#000000" opacity="1.000000" stroke="none" 
	d="
M317.981689,202.100174 
	C317.108948,199.741791 316.254425,197.792267 315.399902,195.842743 
	C315.023895,195.933563 314.647919,196.024399 314.271912,196.115219 
	C314.271912,229.576462 314.271912,263.037720 314.271912,296.747864 
	C305.977661,296.747864 298.241425,296.747864 290.251282,296.747864 
	C290.251282,254.317734 290.251282,211.925446 290.251282,169.266327 
	C303.672943,169.266327 317.089111,169.266327 330.619843,169.266327 
	C340.699371,201.731964 350.800110,234.265945 360.900879,266.799927 
	C361.228912,266.823029 361.556976,266.846100 361.885040,266.869202 
	C372.040131,234.291000 382.195221,201.712814 392.356964,169.113373 
	C405.847504,169.113373 419.140442,169.113373 432.716614,169.113373 
	C432.716614,211.617584 432.716614,254.010086 432.716614,296.701599 
	C425.075104,296.701599 417.336853,296.701599 409.090820,296.701599 
	C409.090820,263.614532 409.090820,230.421356 409.090820,197.228195 
	C408.679993,197.076721 408.269196,196.925262 407.858368,196.773788 
	C407.233429,197.821686 406.392639,198.797485 406.015015,199.927979 
	C395.655731,230.939468 385.262146,261.940216 375.148987,293.032104 
	C374.129791,296.165588 373.006744,297.178894 369.865753,297.063721 
	C363.876404,296.844025 357.863037,297.186249 351.883636,296.858032 
	C350.530365,296.783722 348.525482,295.170837 348.085114,293.845917 
	C338.278778,264.340424 328.650757,234.775711 318.983673,205.223938 
	C318.684540,204.309555 318.329102,203.413589 317.981689,202.100174 
z"/>
<path fill="#000000" opacity="1.000000" stroke="none" 
	d="
M1039.000000,216.012726 
	C1039.424805,208.450363 1039.298828,201.299225 1040.389526,194.338745 
	C1042.619141,180.109940 1053.023926,173.232666 1065.648315,170.255356 
	C1075.249878,167.990997 1085.428223,166.913651 1095.276489,167.280640 
	C1107.079712,167.720474 1119.097168,168.787552 1129.532715,175.921936 
	C1137.220947,181.178101 1139.781006,188.816040 1140.944336,197.302536 
	C1141.302856,199.918381 1141.000000,202.624893 1141.000000,205.644897 
	C1132.741089,205.644897 1124.538818,205.644897 1116.450562,205.644897 
	C1115.830811,201.744888 1115.674805,197.777145 1114.519531,194.125458 
	C1112.234131,186.900482 1105.916748,183.748032 1099.310791,183.275085 
	C1092.101196,182.758926 1084.606567,183.693832 1077.484863,185.184662 
	C1070.284058,186.692093 1065.154785,194.121841 1065.010132,201.232620 
	C1064.645874,219.141800 1064.174805,237.051422 1064.102539,254.962296 
	C1064.082520,259.939606 1065.117798,264.955475 1066.000000,269.894562 
	C1067.575073,278.712799 1074.276245,281.536591 1081.980103,282.994385 
	C1092.294678,284.946320 1102.389771,283.180054 1112.391968,280.876434 
	C1113.786377,280.555267 1115.812378,278.633545 1115.842407,277.410797 
	C1116.111938,266.451202 1115.999634,255.482208 1115.999634,244.120514 
	C1106.993530,244.120514 1098.252197,244.120514 1089.258301,244.120514 
	C1089.258301,238.992783 1089.258301,234.254654 1089.258301,229.256134 
	C1106.344604,229.256134 1123.412231,229.256134 1141.000000,229.256134 
	C1141.000000,236.536148 1141.000000,243.805542 1141.000000,251.074936 
	C1141.000000,263.569946 1140.919922,276.065796 1141.055054,288.559357 
	C1141.089844,291.781128 1140.562378,293.652435 1136.785278,294.083435 
	C1127.278687,295.168213 1117.849731,296.983215 1108.331665,297.905304 
	C1100.127808,298.700043 1091.811890,299.275909 1083.603760,298.842621 
	C1073.807739,298.325500 1064.011353,297.199860 1054.948853,292.566010 
	C1045.676758,287.824890 1040.712769,280.016052 1040.181030,270.214966 
	C1039.211182,252.344666 1039.333374,234.415100 1039.000000,216.012726 
z"/>
<path fill="#000000" opacity="1.000000" stroke="none" 
	d="
M1445.935547,206.000000 
	C1453.638550,206.034531 1460.410767,207.582840 1466.790527,211.197220 
	C1472.382202,214.365051 1474.700439,219.764648 1474.804443,225.225861 
	C1475.257568,249.004776 1474.999268,272.797241 1474.999268,296.791412 
	C1467.219727,296.791412 1459.815063,296.791412 1452.000000,296.791412 
	C1452.000000,280.335602 1452.074951,264.050964 1451.959473,247.767654 
	C1451.918701,242.021744 1451.993164,236.174454 1450.981567,230.559601 
	C1449.469238,222.164917 1444.695435,218.532440 1436.223511,219.102386 
	C1429.385498,219.562393 1422.291626,220.612976 1419.895874,228.714188 
	C1418.855225,232.233475 1418.116455,235.982758 1418.082397,239.635422 
	C1417.905396,258.596802 1418.000000,277.560730 1418.000000,296.760986 
	C1409.948975,296.760986 1402.210815,296.760986 1394.000000,296.760986 
	C1394.000000,287.406677 1394.000000,278.129028 1394.000000,268.851410 
	C1394.000000,257.019287 1394.001465,245.187149 1393.999634,233.355011 
	C1393.998047,223.688812 1385.069336,217.121933 1375.453857,219.141464 
	C1362.980103,221.761292 1361.142944,229.514725 1361.058105,238.281799 
	C1360.871094,257.610260 1361.000000,276.941803 1361.000000,296.636017 
	C1353.210327,296.636017 1345.466553,296.636017 1337.360352,296.636017 
	C1337.360352,267.528015 1337.360352,238.123474 1337.360352,208.359192 
	C1344.949219,208.359192 1352.833984,208.359192 1360.892700,208.359192 
	C1360.892700,209.978394 1360.892700,211.610275 1360.892700,214.184143 
	C1369.479004,208.255371 1378.410156,205.645035 1388.364868,205.887360 
	C1398.506470,206.134247 1407.713989,208.007782 1414.882202,216.384689 
	C1423.885864,209.226166 1433.914307,205.280563 1445.935547,206.000000 
z"/>
<path fill="#000000" opacity="1.000000" stroke="none" 
	d="
M600.718628,298.999969 
	C593.200623,299.240936 586.382080,298.519562 579.832458,295.439850 
	C570.507385,291.055054 566.517883,283.172455 566.140442,273.665100 
	C565.592529,259.863770 565.826294,246.021713 566.048157,232.202194 
	C566.276611,217.974854 578.238464,206.401230 592.463196,205.967987 
	C602.973022,205.647903 613.255920,206.174896 622.931641,212.700958 
	C622.931641,197.685242 622.931641,183.606750 622.931641,169.266159 
	C630.990662,169.266159 638.726196,169.266159 646.732056,169.266159 
	C646.732056,211.639450 646.732056,254.022583 646.732056,296.703125 
	C639.069458,296.703125 631.329041,296.703125 623.156799,296.703125 
	C623.056152,294.958008 622.948120,293.083710 622.881409,291.927399 
	C615.609497,294.297455 608.395264,296.648682 600.718628,298.999969 
M593.438110,224.051468 
	C592.292053,227.157715 590.242126,230.239319 590.156616,233.374481 
	C589.789551,246.842560 590.047852,260.326660 589.972351,273.804321 
	C589.947876,278.154510 591.870972,282.560242 595.337891,283.429626 
	C600.801453,284.799622 607.112305,285.206116 612.518372,283.847443 
	C621.552612,281.576904 622.496704,273.045349 622.868958,265.434296 
	C623.388672,254.810364 623.041077,244.141754 622.982544,233.492722 
	C622.953735,228.255127 620.953979,223.407974 616.294434,221.295792 
	C608.741943,217.872223 600.960754,218.065842 593.438110,224.051468 
z"/>
<path fill="#000000" opacity="1.000000" stroke="none" 
	d="
M482.848450,234.000000 
	C476.395508,234.000000 470.425720,234.000000 464.514374,234.000000 
	C462.195984,220.059036 470.656219,211.501083 482.443146,208.429169 
	C496.979858,204.640625 511.860718,204.481445 526.443298,209.027145 
	C535.952820,211.991486 541.864197,219.337936 541.941650,228.899582 
	C542.123779,251.384094 542.000000,273.871094 542.000000,296.678406 
	C533.975159,296.678406 526.095520,296.678406 518.045227,296.678406 
	C518.045227,294.582977 518.045227,292.610443 518.045227,289.447937 
	C515.821045,291.225677 514.455566,292.884888 512.703552,293.608643 
	C507.865265,295.607452 502.980896,298.118256 497.902618,298.767609 
	C490.146881,299.759277 482.318787,299.085480 474.711792,296.337799 
	C466.573486,293.398193 462.468567,287.219238 461.358490,279.426819 
	C460.138519,270.862976 460.597260,262.149475 465.875641,254.558487 
	C470.800934,247.475296 478.508453,245.297806 486.246643,244.146805 
	C496.592377,242.607941 507.092041,242.104080 517.622803,241.146896 
	C519.408447,223.184540 516.741943,221.020859 504.813416,219.149078 
	C495.093597,217.623886 488.606659,223.675522 487.711884,234.000000 
	C486.275269,234.000000 484.803436,234.000000 482.848450,234.000000 
M485.773682,278.233398 
	C489.682007,284.926910 498.554138,287.495758 506.328857,284.184967 
	C513.952148,280.938660 517.000000,276.439178 517.000000,268.431152 
	C517.000000,263.973999 517.000000,259.516846 517.000000,254.609467 
	C512.938843,255.048203 508.537811,255.460419 504.153870,256.009308 
	C491.743256,257.563171 482.845551,263.878448 485.773682,278.233398 
z"/>
<path fill="#000000" opacity="1.000000" stroke="none" 
	d="
M1520.311279,244.014008 
	C1531.673462,243.054779 1542.603882,242.107819 1553.636230,241.152023 
	C1555.475342,225.403732 1551.686035,219.888275 1541.339233,219.274765 
	C1530.637939,218.640213 1524.812012,220.638977 1522.652832,233.810547 
	C1514.896729,233.810547 1507.120972,233.810547 1499.354004,233.810547 
	C1498.779785,220.391586 1503.930786,212.325638 1518.216553,208.505798 
	C1533.582275,204.397202 1549.175659,204.425064 1564.387329,210.012650 
	C1571.151367,212.497269 1576.936157,220.151505 1576.964355,227.039230 
	C1577.058472,250.114044 1577.000000,273.189514 1577.000000,296.633911 
	C1570.077881,296.633911 1562.207397,296.633911 1554.047363,296.633911 
	C1554.047363,294.513855 1554.047363,292.404419 1554.047363,289.528442 
	C1552.628418,290.454865 1551.642700,290.896698 1550.914917,291.604004 
	C1540.377075,301.846802 1512.946167,301.107605 1503.598389,292.299072 
	C1499.528687,288.464172 1496.789551,284.269287 1497.022217,278.574493 
	C1497.256348,272.840698 1497.069336,266.997955 1498.150513,261.412720 
	C1499.661377,253.607529 1505.011230,248.876556 1512.672363,246.705536 
	C1515.130493,246.008926 1517.480225,244.930161 1520.311279,244.014008 
M1550.588257,276.944275 
	C1555.131958,270.201019 1554.001831,262.697723 1553.831421,255.118851 
	C1544.302612,254.612289 1535.352539,255.289841 1527.125122,259.989319 
	C1519.107788,264.568787 1517.760742,278.435455 1524.852417,283.322327 
	C1531.642212,288.001160 1545.504395,284.795624 1550.588257,276.944275 
z"/>
<path fill="#000000" opacity="1.000000" stroke="none" 
	d="
M1171.710938,217.729767 
	C1176.707275,214.404266 1181.083496,210.073654 1186.275635,208.580490 
	C1200.788086,204.406906 1215.614624,204.601059 1230.181641,209.018387 
	C1239.670532,211.895844 1247.563110,219.842117 1247.068115,232.187469 
	C1246.716431,240.961441 1247.000000,249.760864 1247.000000,258.927856 
	C1227.937988,258.927856 1209.208008,258.927856 1189.575806,258.927856 
	C1190.059204,264.842102 1190.683594,270.321869 1190.905029,275.817841 
	C1191.114990,281.028229 1194.296753,283.566498 1198.740356,284.084747 
	C1203.835693,284.678955 1209.162109,284.948395 1214.184448,284.121857 
	C1221.579346,282.904877 1223.664917,277.223022 1222.942261,270.189606 
	C1231.096436,270.189606 1238.845215,270.189606 1246.557251,270.189606 
	C1249.051514,283.098419 1242.912231,292.584198 1228.786865,296.146118 
	C1213.901733,299.899567 1199.259277,300.214783 1184.453369,296.086365 
	C1173.630737,293.068573 1167.692505,285.999054 1167.083740,274.973358 
	C1166.381836,262.260559 1165.699707,249.483398 1166.267578,236.790512 
	C1166.550415,230.468750 1169.642212,224.272644 1171.710938,217.729767 
M1217.400146,245.000000 
	C1219.170288,245.000000 1220.940430,245.000000 1223.000000,245.000000 
	C1223.000000,241.884918 1222.833740,239.247009 1223.029053,236.636139 
	C1223.842163,225.766098 1219.239380,221.653702 1209.566284,219.224472 
	C1202.763672,217.516144 1192.877197,222.096222 1191.362183,228.432648 
	C1190.103394,233.697998 1190.125244,239.269608 1189.550415,245.000000 
	C1199.191528,245.000000 1207.807373,245.000000 1217.400146,245.000000 
z"/>
<path fill="#000000" opacity="1.000000" stroke="none" 
	d="
M709.947266,299.000000 
	C701.415039,297.997131 693.119873,297.905212 685.379883,295.785583 
	C672.619995,292.291199 668.840942,283.642059 668.180603,272.575928 
	C667.408325,259.635773 667.186035,246.548996 668.220337,233.645691 
	C669.338196,219.699982 673.101135,211.316711 691.563416,207.388504 
	C704.725525,204.587982 718.314331,204.577728 731.304077,209.070831 
	C744.961365,213.794846 747.875305,219.402756 748.884827,233.068573 
	C749.506836,241.488098 749.000000,249.991013 749.000000,258.834320 
	C730.031860,258.834320 711.304138,258.834320 691.611694,258.834320 
	C692.062866,265.389893 692.326233,271.551392 693.018555,277.664276 
	C693.195740,279.229248 694.434570,280.983917 695.691223,282.062286 
	C700.758789,286.410706 715.937195,286.517639 720.490479,281.719696 
	C723.163940,278.902618 724.437134,274.756714 726.847046,270.263428 
	C732.842285,270.263428 740.604431,270.263428 748.386719,270.263428 
	C750.912903,282.489471 744.758911,293.179291 728.848206,296.865265 
	C722.866272,298.251129 716.580750,298.326935 709.947266,299.000000 
M710.217529,219.032883 
	C694.794556,220.218002 690.168396,224.928741 692.468872,244.798233 
	C703.173584,244.798233 713.893616,244.798233 724.589294,244.798233 
	C726.361877,229.670624 723.567688,221.045807 710.217529,219.032883 
z"/>
<path fill="#000000" opacity="1.000000" stroke="none" 
	d="
M910.110352,207.966644 
	C923.010376,204.572983 935.223938,204.637863 946.861023,211.005875 
	C952.007874,213.822327 954.755737,218.819977 954.837769,224.172729 
	C955.207520,248.284973 954.999207,272.406067 954.999207,296.761292 
	C946.950989,296.761292 939.215454,296.761292 931.000000,296.761292 
	C931.000000,293.090424 931.000000,289.477539 931.000000,285.864624 
	C931.000000,268.207825 931.003479,250.551041 930.998535,232.894241 
	C930.996094,224.124908 922.496277,217.337677 913.873779,219.004242 
	C901.758606,221.345901 897.947876,227.113266 897.984192,238.924179 
	C898.042969,258.067566 898.000000,277.211273 898.000000,296.677246 
	C890.126038,296.677246 882.387512,296.677246 874.322998,296.677246 
	C874.322998,267.461823 874.322998,238.067337 874.322998,208.336060 
	C881.844727,208.336060 889.582520,208.336060 897.739807,208.336060 
	C897.879700,209.653259 898.044617,211.205872 898.246460,213.105911 
	C902.162964,211.357742 905.927673,209.677307 910.110352,207.966644 
z"/>
<path fill="#000000" opacity="1.000000" stroke="none" 
	d="
M1625.000000,260.000000 
	C1625.000000,272.475891 1625.000000,284.451813 1625.000000,296.713318 
	C1617.048950,296.713318 1609.309570,296.713318 1601.283691,296.713318 
	C1601.283691,267.373901 1601.283691,237.971832 1601.283691,208.284439 
	C1608.964844,208.284439 1616.713623,208.284439 1624.769165,208.284439 
	C1624.769165,209.951309 1624.769165,211.699646 1624.769165,214.284546 
	C1634.897949,206.558350 1646.084961,204.765167 1657.562134,206.148361 
	C1670.170410,207.667847 1678.258789,210.240356 1681.481934,221.992203 
	C1681.779297,223.076645 1681.977417,224.227707 1681.978760,225.348099 
	C1682.006958,249.003784 1682.000000,272.659515 1682.000000,296.657532 
	C1674.165527,296.657532 1666.423584,296.657532 1658.220947,296.657532 
	C1658.156738,295.490509 1658.011108,294.067047 1658.010010,292.643433 
	C1657.995117,272.980042 1657.741821,253.311905 1658.101807,233.655106 
	C1658.301758,222.738037 1648.646973,217.566025 1639.794189,219.678635 
	C1636.744019,220.406479 1633.492065,221.138046 1630.906006,222.774521 
	C1626.223389,225.737503 1625.087646,230.788834 1625.024658,236.003937 
	C1624.930054,243.834930 1625.000000,251.667877 1625.000000,260.000000 
z"/>
<path fill="#000000" opacity="1.000000" stroke="none" 
	d="
M1322.000000,214.011688 
	C1322.000000,217.142242 1322.000000,219.788116 1322.000000,222.478760 
	C1317.059448,223.342346 1312.312622,224.084549 1307.602783,225.014069 
	C1298.715820,226.767990 1294.440308,232.626038 1294.100830,241.456131 
	C1293.426270,259.003967 1293.332520,276.574188 1293.001709,294.135193 
	C1292.986694,294.932098 1292.999756,295.729523 1292.999756,296.762238 
	C1285.285645,296.762238 1277.886108,296.762238 1270.242188,296.762238 
	C1270.242188,267.310303 1270.242188,237.928360 1270.242188,208.272888 
	C1277.644043,208.272888 1285.047363,208.272888 1292.967041,208.272888 
	C1292.967041,210.746338 1292.967041,213.280502 1292.967041,216.879395 
	C1301.716797,209.383194 1310.878296,205.697052 1322.000000,206.024719 
	C1322.000000,208.639694 1322.000000,211.083344 1322.000000,214.011688 
z"/>
<path fill="#000000" opacity="1.000000" stroke="none" 
	d="
M827.000000,276.999695 
	C827.005188,254.171585 827.009644,231.843338 827.023438,209.515106 
	C827.023621,209.202606 827.141052,208.890167 827.261658,208.289856 
	C834.944092,208.289856 842.683228,208.289856 850.712708,208.289856 
	C850.712708,237.617523 850.712708,267.018463 850.712708,296.710144 
	C843.055908,296.710144 835.316772,296.710144 827.000000,296.710144 
	C827.000000,290.362305 827.000000,283.930939 827.000000,276.999695 
z"/>
<path fill="#000000" opacity="1.000000" stroke="none" 
	d="
M826.000000,181.872269 
	C826.000000,177.421585 826.000000,173.454819 826.000000,169.245850 
	C834.369202,169.245850 842.440186,169.245850 850.756714,169.245850 
	C850.756714,174.706741 850.756714,180.111435 850.756714,185.998581 
	C843.254028,185.998581 835.808289,185.891281 828.368103,186.048477 
	C825.142029,186.116653 826.177002,183.968033 826.000000,181.872269 
z"/>
<path fill="#FFFFFF" opacity="1.000000" stroke="none" 
	d="
M593.717529,223.778931 
	C600.960754,218.065842 608.741943,217.872223 616.294434,221.295792 
	C620.953979,223.407974 622.953735,228.255127 622.982544,233.492722 
	C623.041077,244.141754 623.388672,254.810364 622.868958,265.434296 
	C622.496704,273.045349 621.552612,281.576904 612.518372,283.847443 
	C607.112305,285.206116 600.801453,284.799622 595.337891,283.429626 
	C591.870972,282.560242 589.947876,278.154510 589.972351,273.804321 
	C590.047852,260.326660 589.789551,246.842560 590.156616,233.374481 
	C590.242126,230.239319 592.292053,227.157715 593.717529,223.778931 
z"/>
<path fill="#FFFFFF" opacity="1.000000" stroke="none" 
	d="
M485.468079,277.953125 
	C482.845551,263.878448 491.743256,257.563171 504.153870,256.009308 
	C508.537811,255.460419 512.938843,255.048203 517.000000,254.609467 
	C517.000000,259.516846 517.000000,263.973999 517.000000,268.431152 
	C517.000000,276.439178 513.952148,280.938660 506.328857,284.184967 
	C498.554138,287.495758 489.682007,284.926910 485.468079,277.953125 
z"/>
<path fill="#FFFFFF" opacity="1.000000" stroke="none" 
	d="
M1550.317993,277.220215 
	C1545.504395,284.795624 1531.642212,288.001160 1524.852417,283.322327 
	C1517.760742,278.435455 1519.107788,264.568787 1527.125122,259.989319 
	C1535.352539,255.289841 1544.302612,254.612289 1553.831421,255.118851 
	C1554.001831,262.697723 1555.131958,270.201019 1550.317993,277.220215 
z"/>
<path fill="#FFFFFF" opacity="1.000000" stroke="none" 
	d="
M1216.911621,245.000000 
	C1207.807373,245.000000 1199.191528,245.000000 1189.550415,245.000000 
	C1190.125244,239.269608 1190.103394,233.697998 1191.362183,228.432648 
	C1192.877197,222.096222 1202.763672,217.516144 1209.566284,219.224472 
	C1219.239380,221.653702 1223.842163,225.766098 1223.029053,236.636139 
	C1222.833740,239.247009 1223.000000,241.884918 1223.000000,245.000000 
	C1220.940430,245.000000 1219.170288,245.000000 1216.911621,245.000000 
z"/>
<path fill="#FFFFFF" opacity="1.000000" stroke="none" 
	d="
M710.590942,219.243439 
	C723.567688,221.045807 726.361877,229.670624 724.589294,244.798233 
	C713.893616,244.798233 703.173584,244.798233 692.468872,244.798233 
	C690.168396,224.928741 694.794556,220.218002 710.590942,219.243439 
z"/>
</svg>